<?xml version="1.0" encoding="UTF-8" standalone="no"?>
<!-- Created with Inkscape (http://www.inkscape.org/) -->

<svg
   version="1.1"
   id="svg2"
   xml:space="preserve"
   width="438.90668"
   height="438.60001"
   viewBox="0 0 438.90668 438.60001"
   sodipodi:docname="znag_qpsz_160528.eps"
   xmlns:inkscape="http://www.inkscape.org/namespaces/inkscape"
   xmlns:sodipodi="http://sodipodi.sourceforge.net/DTD/sodipodi-0.dtd"
   xmlns="http://www.w3.org/2000/svg"
   xmlns:svg="http://www.w3.org/2000/svg"><defs
     id="defs6" /><sodipodi:namedview
     id="namedview4"
     pagecolor="#ffffff"
     bordercolor="#666666"
     borderopacity="1.0"
     inkscape:pageshadow="2"
     inkscape:pageopacity="0.0"
     inkscape:pagecheckerboard="0" /><g
     id="g8"
     inkscape:groupmode="layer"
     inkscape:label="ink_ext_XXXXXX"
     transform="matrix(1.3333333,0,0,-1.3333333,0,438.6)"><g
       id="g10"
       transform="scale(0.1)"><path
         d="M 3247.35,1644.74 C 3247.35,760.352 2530.36,43.3086 1645.9,43.3086 761.469,43.3086 44.457,760.352 44.457,1644.74 c 0,884.51 717.012,1601.44 1601.443,1601.44 884.46,0 1601.45,-716.93 1601.45,-1601.44"
         style="fill:#fc5200;fill-opacity:1;fill-rule:nonzero;stroke:none"
         id="path12" /><path
         d="m 3246.86,1604.93 c 0,0.06 0,-0.02 0,0.04 v -0.04 m 0.05,1.93 c 0,0.05 0,0 0,0.06 v -0.06 m 0.04,1.94 c 0,0.05 0,-0.01 0,0.04 v -0.04 m 0.04,1.91 c 0,0.05 0,0.05 0.01,0.1 l -0.01,-0.1 m 0.04,1.93 c 0,0.06 0,0.06 0.01,0.12 -0.01,-0.04 -0.01,-0.08 -0.01,-0.12 m 0.04,1.93 c 0,0.05 0,0.09 0,0.14 0,-0.08 0,-0.06 0,-0.14 m 0.02,1.01 v 0.03 -0.03 m 0.01,0.93 c 0.01,0.06 0.01,0.08 0.01,0.13 0,-0.04 0,-0.09 -0.01,-0.13 m 0.04,1.94 c 0,0.05 0,0.07 0,0.13 0,-0.08 0,-0.05 0,-0.13 m 0.01,1.02 v 0.01 -0.01 m 0.02,0.91 c 0,0.06 0,0.09 0,0.15 0,-0.08 0,-0.07 0,-0.15 m 0.02,1.95 c 0.01,0.06 0.01,0.07 0.01,0.12 0,-0.04 0,-0.08 -0.01,-0.12 m 0.03,1.95 c 0,0.06 0,0.05 0,0.1 v -0.1 m 0.02,1.92 c 0,0.05 0,0.1 0,0.15 0,-0.08 0,-0.07 0,-0.15 m 0.01,1.02 v 0.03 -0.03 m 0.01,0.91 c 0,0.05 0.01,0.13 0.01,0.18 -0.01,-0.08 -0.01,-0.1 -0.01,-0.18 m 0.01,1.04 v 0.02 -0.02 m 0.01,0.9 c 0,0.06 0,0.12 0,0.17 0,-0.08 0,-0.09 0,-0.17 m 0.02,1.95 c 0,0.05 0,0.11 0,0.17 0,-0.08 0,-0.09 0,-0.17 m 0.01,1.04 v 0.01 -0.01 m 0,0.9 c 0,0.06 0,0.11 0,0.16 0,-0.08 0,-0.07 0,-0.16 m 0.01,1.94 c 0,0.1 0,0.07 0.01,0.18 -0.01,-0.08 -0.01,-0.1 -0.01,-0.18 m 0.01,1.03 v 0.03 -0.03 m 0,0.89 c 0,0.11 0,0.11 0,0.22 0,-0.08 0,-0.14 0,-0.22 m 0.01,1.04 v 0.05 -0.05 m 0,0.91 c 0,0.11 0,0.11 0,0.22 0,-0.08 0,-0.14 0,-0.22 m 0,1.05 v 0.03 -0.03 m 0.01,0.89 c 0,0.11 0,0.11 0,0.22 0,-0.09 0,-0.14 0,-0.22 m 0,1.07 v 0.02 -0.02 m 0,0.88 c 0,0.11 0,0.1 0,0.21 0,-0.08 0,-0.13 0,-0.21 m 0,1.08 c 0,0.22 0,0.4 0,0.62 0,-0.2 0,-0.42 0,-0.62 m 0,0.92 c 0,0.1 0,0.23 0,0.34 0,-0.12 0,-0.23 0,-0.34 m 0,0.64 c 0,0.11 0,0.22 0,0.32 0,-0.1 0,-0.22 0,-0.32 m 0,0.63 c 0,0.11 0,0.22 0,0.33 0,-0.12 0,-0.22 0,-0.33 m 0,0.66 c 0,0.05 0,0.24 0,0.29 0,-0.1 0,-0.19 0,-0.29 m -0.01,0.64 c 0,0.05 0,0.22 0,0.27 0,-0.09 0,-0.18 0,-0.27 m 0,0.64 c 0,0.05 0,0.21 0,0.27 0,-0.09 0,-0.18 0,-0.27 m 0,0.61 c 0,0.11 0,0.17 0,0.28 0,-0.1 0,-0.18 0,-0.28 m 0,0.66 c 0,0.1 0,0.13 0,0.23 0,-0.07 0,-0.16 0,-0.23 m 0,0.64 c 0,0.1 0,0.09 0,0.2 0,-0.08 0,-0.13 0,-0.2 m -0.01,0.65 c 0,0.05 0,0.09 0,0.14 0,-0.05 0,-0.09 0,-0.14 m 0,0.63 c 0,0.05 0,0.05 0,0.11 0,-0.04 0,-0.07 0,-0.11"
         style="fill:#b03900;fill-opacity:1;fill-rule:nonzero;stroke:none"
         id="path14" /><path
         d="m 2266.12,167.879 c -137.68,52.723 -373.44,142.992 -777.49,297.723 -339.72,514.058 28.88,924.298 28.88,924.298 0,0 -95.84,158.3 -149.17,275.05 -9.49,-3.42 -18.45,-5.06 -26.88,-5.05 -81.61,0 -113.43,153.57 -87.94,334.96 155.18,306.68 110.99,263.9 0,466.66 -122.13,223.69 362.41,359.1 362.41,359.1 l 1517.88,-582.64 c 72.35,-181.3 112.58,-378.91 113.52,-585.81 0,-0.06 0,-0.06 0,-0.11 0,-0.17 0,-0.32 0,-0.49 0,-0.05 0,-0.09 0,-0.14 0.01,-0.14 0.01,-0.31 0.01,-0.45 0,-0.11 0,-0.1 0,-0.2 0,-0.13 0,-0.28 0,-0.41 0,-0.1 0,-0.13 0,-0.23 0,-0.13 0,-0.25 0,-0.38 0,-0.11 0,-0.17 0,-0.28 0,-0.1 0,-0.24 0,-0.34 0,-0.06 0,-0.22 0,-0.27 0,-0.13 0,-0.24 0,-0.37 0,-0.05 0,-0.22 0,-0.27 0,-0.11 0,-0.24 0.01,-0.35 0,-0.05 0,-0.24 0,-0.29 0,-0.11 0,-0.23 0,-0.33 0,-0.11 0,-0.22 0,-0.33 0,-0.11 0,-0.2 0,-0.31 0,-0.1 0,-0.21 0,-0.32 0,-0.1 0,-0.2 0,-0.3 0,-0.11 0,-0.24 0,-0.34 0,-0.11 0,-0.2 0,-0.3 0,-0.22 0,-0.4 0,-0.62 v 0 0 c 0,-0.28 0,-0.58 0,-0.87 0,-0.11 0,-0.1 0,-0.21 0,-0.28 0,-0.58 0,-0.86 v -0.02 c 0,-0.29 0,-0.57 0,-0.85 0,-0.11 0,-0.11 0,-0.22 -0.01,-0.28 -0.01,-0.58 -0.01,-0.86 v -0.03 c 0,-0.28 0,-0.55 0,-0.83 0,-0.11 0,-0.11 0,-0.22 0,-0.28 0,-0.58 0,-0.86 v -0.05 c 0,-0.28 0,-0.54 -0.01,-0.82 0,-0.11 0,-0.11 0,-0.22 0,-0.28 0,-0.57 0,-0.86 v -0.03 c 0,-0.28 0,-0.57 0,-0.85 -0.01,-0.11 -0.01,-0.08 -0.01,-0.18 0,-0.57 0,-1.21 -0.01,-1.78 0,-0.05 0,-0.1 0,-0.16 0,-0.28 0,-0.61 0,-0.89 v -0.01 c -0.01,-0.29 -0.01,-0.59 -0.01,-0.87 0,-0.06 0,-0.12 0,-0.17 -0.01,-0.57 -0.01,-1.21 -0.02,-1.78 0,-0.05 0,-0.11 0,-0.17 0,-0.28 0,-0.6 -0.01,-0.88 v -0.02 c 0,-0.28 0,-0.58 0,-0.86 0,-0.05 -0.01,-0.13 -0.01,-0.18 0,-0.29 0,-0.6 -0.01,-0.88 v -0.03 c 0,-0.28 0,-0.59 -0.01,-0.87 0,-0.05 0,-0.1 0,-0.15 0,-0.61 -0.01,-1.21 -0.02,-1.82 0,-0.05 0,-0.04 0,-0.1 -0.01,-0.6 -0.02,-1.22 -0.02,-1.83 0,-0.05 0,-0.06 -0.01,-0.12 0,-0.6 -0.01,-1.2 -0.02,-1.8 0,-0.06 0,-0.09 0,-0.15 -0.01,-0.28 -0.01,-0.62 -0.02,-0.9 v -0.01 c 0,-0.28 -0.01,-0.61 -0.01,-0.89 0,-0.06 0,-0.08 0,-0.13 -0.01,-0.57 -0.02,-1.24 -0.03,-1.81 0,-0.05 0,-0.07 -0.01,-0.13 0,-0.32 -0.01,-0.58 -0.01,-0.9 v -0.03 c -0.01,-0.28 -0.01,-0.59 -0.02,-0.87 0,-0.05 0,-0.09 0,-0.14 -0.01,-0.57 -0.02,-1.25 -0.03,-1.81 -0.01,-0.06 -0.01,-0.06 -0.01,-0.12 -0.01,-0.64 -0.02,-1.18 -0.03,-1.83 -0.01,-0.05 -0.01,-0.05 -0.01,-0.1 -0.01,-0.65 -0.02,-1.22 -0.04,-1.87 0,-0.05 0,0.01 0,-0.04 -0.01,-0.65 -0.02,-1.24 -0.04,-1.88 0,-0.06 0,-0.01 0,-0.06 -0.02,-0.65 -0.03,-1.25 -0.05,-1.89 0,-0.06 0,0.02 0,-0.04 C 3231.07,957.539 2831.02,405.41 2266.12,167.879"
         style="fill:#b03900;fill-opacity:1;fill-rule:nonzero;stroke:none"
         id="path16" /><path
         d="m 1834.17,1242.96 c 3.53,-5.6 7.12,-11.11 10.68,-16.68 3.48,22.83 7.67,44.46 12.65,64.42 -10.82,31.09 -19.02,63.18 -30.37,94.1 -9.29,-28.28 -17.13,-60.33 -23.45,-94.9 9.12,-16.37 20.99,-31.88 30.49,-46.94"
         style="fill:#ffffff;fill-opacity:1;fill-rule:nonzero;stroke:none"
         id="path18" /><path
         d="m 2004.95,1476.97 c -0.57,-13.58 -2.03,-27.09 -1.29,-40.8 0.82,-15.1 3.04,-30.04 5.52,-44.89 37.06,-59.96 62.23,-176.85 62.23,-311.46 0,-195.57 -53.16,-354.14 -118.67,-354.14 -65.55,0 -118.71,158.57 -118.71,354.14 0,26.29 1.13,51.72 2.99,76.33 -6.82,8.3 -13.62,16.56 -20.32,24.92 -7.65,9.59 -16.11,19.22 -24.16,29.27 -3.53,-36.11 -5.46,-74.06 -5.46,-113.35 0,-234.381 67.51,-424.342 150.82,-424.342 83.3,0 150.8,189.961 150.8,424.342 0,166.54 -34.12,310.6 -83.75,379.98"
         style="fill:#ffffff;fill-opacity:1;fill-rule:nonzero;stroke:none"
         id="path20" /><path
         d="m 1413.83,1495.05 c 18.23,-20.97 38.79,-44.71 61.86,-64.18 13.59,5.35 27.58,9.14 41.81,11.94 -2.1,21.5 -2.91,43.22 -2.69,64.9 -0.29,3.88 -0.55,7.65 -0.8,11.5 -13.4,17.5 -25.35,35.98 -33.48,56.39 -6.79,16.97 -12.69,35.23 -11.58,53.83 0.18,2.46 0.41,4.98 0.7,7.44 -0.17,2.21 -0.27,4.45 -0.35,6.72 -16.31,-1.64 -32.5,-3.91 -48.12,-7.35 -22.91,-5.06 -44.67,-14.25 -67.25,-20.39 6.35,-45.45 29.49,-85.86 59.9,-120.8"
         style="fill:#ffffff;fill-opacity:1;fill-rule:nonzero;stroke:none"
         id="path22" /><path
         d="m 1841.45,1936.54 c -25.55,-24.73 -58.57,-40.8 -93.81,-48.19 -42.34,-8.86 -88.46,-8.42 -130.92,-0.62 -36.68,6.77 -66.66,23.83 -100.07,48.86 -7.99,-6.48 -15.9,-13.39 -23.83,-21.05 -37.91,-36.78 -74.75,-77.99 -102.52,-122.93 -19.3,-31.19 -33.19,-64.78 -40.37,-98.94 55.09,17.91 113.55,23.57 171.56,25.11 35.98,31.66 84.92,54.36 119.24,61.68 40.94,8.75 83.61,11.27 117.03,-17.99 10.43,-9.04 18.73,-19.41 25.43,-30.62 8.75,69.24 44,135.47 58.26,204.69"
         style="fill:#ffffff;fill-opacity:1;fill-rule:nonzero;stroke:none"
         id="path24" /><path
         d="m 2018.6,1292.38 c -2.03,8.67 -3.99,17.11 -5.8,25.07 -22.4,99.13 -33.99,198.44 -23.91,299.91 7.99,80.5 20.9,164.12 0.9,243.94 -3.3,13.22 -7.58,25.94 -12.64,38.26 -17.03,-79.35 -66.93,-148.1 -84.65,-227.26 0.47,-12.42 2.09,-24.83 3.42,-37.83 2.25,-21.55 1.14,-42.27 -3.02,-63.52 -8.72,-44.65 -23.32,-87.77 -24.89,-133.57 -0.08,-2.21 -3.12,-4.95 -5.37,-3.79 -18.77,9.92 -32.15,26.11 -41.68,44.98 17.4,-100.43 56.37,-193.65 89.06,-292.5 11.9,-35.88 22.54,-72.89 28.66,-110.45 12.54,-68.85 10.95,-137.19 -23.58,-195.409 37.76,19.371 69.12,48.789 89.18,87.418 23.09,44.671 32.68,95.101 33.67,145.041 1.25,60.62 -8.59,120.19 -19.35,179.71"
         style="fill:#ffffff;fill-opacity:1;fill-rule:nonzero;stroke:none"
         id="path26" /><path
         d="m 1841.24,2101.71 c -15.86,57.48 -61.51,100.47 -117.78,119.24 -60.35,20.08 -123.2,9.49 -181.74,-14.39 -54.92,-22.43 -100.54,-63.44 -136.44,-106.55 18.34,-42.07 40,-72.09 63.2,-98.73 58.93,-67.71 146.58,-115 238.09,-106.27 78.14,7.54 120.54,47.85 141.36,68.58 6.45,46.07 5.49,93.73 -6.69,138.12"
         style="fill:#ffffff;fill-opacity:1;fill-rule:nonzero;stroke:none"
         id="path28" /><path
         d="m 1284.17,1468.96 c -1.92,-10.67 -7.27,-21.02 -8.36,-31.72 16.64,0.19 28.84,13.69 34.66,32.58 4.85,15.78 7.56,33.65 4.71,50.13 -2.56,14.93 -9.67,28.5 -12.81,43.32 -4.73,22.47 -0.22,42 19.8,54.09 37.03,22.34 84.51,32.05 126.19,39.76 99.07,18.28 211.68,23.83 311.39,7.5 20.1,-3.3 44.1,-2.73 57.7,-20.56 16.91,-22.17 1.01,-49.69 -2.56,-73.44 -4.87,-32.38 5.62,-71.51 33.47,-91.62 1.27,-0.94 3.34,51.38 3.48,55.93 0.43,18.42 7.25,32.97 14.71,49.48 14.82,32.81 24.7,65.45 -6.92,92.03 -30.07,25.27 -73.84,31.29 -111.58,35.64 -48.46,5.65 -97.3,6.88 -146.03,4.34 -44.34,-2.38 -88.44,-8.61 -132.37,-14.96 -61.99,-8.95 -230.15,-23.17 -215.19,-124.51 2.52,-17.03 5.37,-22.87 10.29,-39.24 5.04,-16.62 22.42,-51.94 19.42,-68.75"
         style="fill:#ffffff;fill-opacity:1;fill-rule:nonzero;stroke:none"
         id="path30" /><path
         d="m 1662.56,1328.12 c 0.88,-22.21 1.31,-44.4 1.92,-66.58 l 0.04,-2.52 c 0.31,-10.51 0.06,-21.08 -0.22,-31.68 35.67,-74.63 58.11,-183.69 58.11,-305.141 0,-225.058 -77.17,-407.558 -172.35,-407.558 -95.19,0 -172.38,182.5 -172.38,407.558 0,225.101 77.19,407.581 172.38,407.581 17.84,0 35.08,-6.41 51.25,-18.3 -1.13,11.64 -5.09,57.26 -5.47,73.36 0,0.97 -0.03,1.83 0,2.58 0.04,6.09 0.41,12.94 -0.21,19.49 -21.13,15.13 -43.69,23.42 -67.09,23.42 -121,0 -219.08,-218.64 -219.08,-488.361 0,-269.707 98.08,-488.36 219.08,-488.36 120.98,0 219.04,218.653 219.04,488.36 0,157.091 -33.3,296.811 -85.02,386.151"
         style="fill:#ffffff;fill-opacity:1;fill-rule:nonzero;stroke:none"
         id="path32" /><path
         d="m 1937.9,1062.24 -298.03,439.9 159.78,9.01 -7.18,30.52 -211.88,-8.96 2.99,132.24 -56.86,-6.56 7.17,-215.49 46.7,-7.15 c 32.31,-8.98 25.12,-48.51 25.12,-48.51 l 32.32,-420.119 c -1.76,-23.359 -28.73,-10.762 -28.73,7.188 0,17.929 14.36,21.543 14.36,21.543 -7.13,3.578 -32.31,17.968 -34.08,-44.883 -1.82,-62.867 46.69,-55.68 46.69,-55.68 35.88,-3.598 28.72,39.512 28.72,39.512 0,0 -16.2,452.439 -26.96,506.329 -2.11,10.52 -4.49,19.08 -6.95,26.13 l 306.82,-441.51 v 36.49"
         style="fill:#ffffff;fill-opacity:1;fill-rule:nonzero;stroke:none"
         id="path34" /><path
         d="m 1919.2,2323.41 c -11.36,14.08 -23.9,26.72 -37.44,37.85 -57.46,47.33 -132.63,68.28 -207.58,65.98 2.58,-69.28 -36.85,-135.88 -93.84,-176.29 -36.17,-25.74 -81.04,-39.24 -125.43,-35.96 -27.21,2 -55.94,7.87 -79.26,22.85 -16.5,10.57 -30.82,23.72 -45.43,36.66 -12.79,-14.25 -24.94,-29.45 -36.15,-45.83 -21.7,-31.67 -42.42,-67.15 -56.9,-102.78 -49.18,-121.01 -40.35,-236.8 -3.67,-360.1 12.23,-41.27 30.43,-80.93 45.74,-121.13 9.71,-25.41 15.71,-49.8 19.63,-76.76 2.17,-14.88 16.97,-51.27 2.97,-64.31 -3.44,-3.21 -1.48,-8.71 3.44,-6.88 26.44,9.85 34.74,48.91 37.52,73.4 5.06,44.3 -12.91,101.62 -20.63,145.49 -6.75,38.59 -13.02,77.01 -12.91,116.27 0.3,76.62 12.46,162.63 47.7,231.48 49.76,97.23 161.97,176.66 272.46,181.82 34.43,1.54 72.93,-1.5 106.46,-9.79 127.41,-31.38 137.37,-194.78 118.7,-298.9 -14.11,-78.91 -48.36,-153.26 -56.9,-233.24 -3.22,-30.2 2.36,-59.11 11.47,-87.76 8.61,-27.13 23.04,-51.23 31.83,-77.64 4.59,-13.84 19.2,2.31 22.46,7.52 11.86,18.85 6.74,51.12 6.94,72.43 0.27,30.74 1.4,61.62 11.03,91.13 19.94,61.21 52.09,117.85 68.65,180.31 34.75,130.92 60.94,319.85 -30.86,434.18"
         style="fill:#ffffff;fill-opacity:1;fill-rule:nonzero;stroke:none"
         id="path36" /><path
         d="m 1507.02,2379.11 c -74.89,-34.61 -153.87,-40.27 -227.19,-5.15 22.03,-83.58 98.12,-145.22 188.61,-145.22 107.78,0 195.12,87.39 195.12,195.14 0,23.01 -4.02,45.1 -11.31,65.58 -35.39,-49.64 -93.48,-86.4 -145.23,-110.35"
         style="fill:#ffffff;fill-opacity:1;fill-rule:nonzero;stroke:none"
         id="path38" /><path
         d="m 1607.33,2627.67 c -1.84,-19.51 -3.48,-39.87 -10.04,-58.42 -9.49,-26.68 -47.23,-59.2 -77.29,-49.06 -1.36,0.49 -0.87,2.26 -0.48,3.12 8.36,19.51 28.12,31.33 38.18,49.89 13.2,24.25 18.09,52.38 22.83,79.27 2.01,11.43 3.62,28.52 13.42,36.76 6.13,5.14 8.77,-1.6 9.9,-6.85 7.03,-16.76 5.18,-37.23 3.48,-54.71 z m -95.41,-4.04 c -2.66,-21.63 -6.62,-42.88 -14.98,-63.11 -12.6,-30.45 -41.54,-56.84 -73.79,-65.27 -7.64,-2 -14.94,3.3 -9.61,11.38 9.51,14.46 25.84,22.48 35.98,36.58 18.71,26.08 29.74,56.59 37.85,87.45 3.9,14.88 7.54,29.98 10.41,45.13 1.13,6.1 3.81,27.52 10.6,29.48 19.42,5.48 4.18,-76.51 3.54,-81.64 z m -141.86,-86.37 c -0.04,-8.46 -1.87,-45.86 -18.98,-40.45 -11.21,3.53 -13.3,29.82 -13.85,38.48 -1.19,17.03 -0.86,34.43 2.4,51.19 6.49,33.24 21.62,64.82 42.15,91.62 14.01,18.38 29.53,37.28 46.66,52.95 9.96,9.08 21.82,19.29 35.76,20.06 10.59,0.56 0.63,-11.76 -1.99,-15.43 -22.81,-32.27 -50.53,-57.84 -66.62,-94.87 -7.52,-17.48 -12.6,-35.84 -16.58,-54.35 -3.3,-15.39 -8.95,-33.4 -8.95,-49.2 z m -36.01,131.38 c -1.92,-5.29 -4.1,-9.02 -7.99,-13.12 l -1.74,-1.09 c -16.39,-24.73 -35.62,-50.16 -38.65,-80.18 -2.91,-29.34 13.83,-51.19 23.28,-77.44 0.68,-1.92 -1.52,-3.95 -3.14,-4.51 -35.51,-12.17 -58.46,41.77 -54.24,69.98 4.49,30.04 23.86,56.83 43.12,79.41 9.51,11.17 21.06,30.57 37.93,29.61 1.25,-0.1 1.82,-1.56 1.43,-2.66 z m 363.57,22.86 c -8.77,49.45 -30.35,107.98 -79.2,130.43 -84.45,38.88 -176.6,-10 -242.2,-65.34 -25.34,-21.34 -50.2,-45.37 -71.61,-71.89 -15,-16.35 -28.94,-33.26 -41.71,-50.47 -38.52,-52.01 -60.61,-114.08 -38.21,-176.74 43.79,-122.63 187.29,-105.58 284.71,-64.22 115.68,49.24 211.46,166.88 188.22,298.23"
         style="fill:#ffffff;fill-opacity:1;fill-rule:nonzero;stroke:none"
         id="path40" /><path
         d="M 1587.76,880.969 1573.4,548.742 c 0,0 21.55,177.778 14.36,332.227"
         style="fill:#ffffff;fill-opacity:1;fill-rule:nonzero;stroke:none"
         id="path42" /><path
         d="M 1562.72,884.41 1453.19,624.699 c 0,0 70.55,134.59 109.53,259.711"
         style="fill:#ffffff;fill-opacity:1;fill-rule:nonzero;stroke:none"
         id="path44" /><path
         d="M 1559.46,924.82 1380,863.531 c 0,0 101.27,20.43 179.46,61.289"
         style="fill:#ffffff;fill-opacity:1;fill-rule:nonzero;stroke:none"
         id="path46" /><path
         d="m 1579.95,1017.51 2.79,276.37 c 0,0 -19.16,-148.89 -2.79,-276.37"
         style="fill:#ffffff;fill-opacity:1;fill-rule:nonzero;stroke:none"
         id="path48" /><path
         d="m 1546.82,1000.77 -72.93,231.08 c 0,0 25.33,-128.97 72.93,-231.08"
         style="fill:#ffffff;fill-opacity:1;fill-rule:nonzero;stroke:none"
         id="path50" /><path
         d="m 1551.25,973.352 -154.47,48.808 c 0,0 79.61,-40.469 154.47,-48.808"
         style="fill:#ffffff;fill-opacity:1;fill-rule:nonzero;stroke:none"
         id="path52" /></g></g></svg>
