<svg width="14.789mm" height="16.933mm" version="1.1" viewBox="0 0 14.789 16.933" xmlns="http://www.w3.org/2000/svg">
 <g transform="translate(-51.121 -33.796)">
  <g transform="matrix(.035278 0 0 -.035278 13.211 202.51)">
   <path d="m1493.8 4522.7c0-115.76-93.845-209.61-209.61-209.61-115.76 0-209.6 93.843-209.6 209.61 0 115.76 93.843 209.6 209.6 209.6 115.76 0 209.61-93.843 209.61-209.6" style="fill:#f4704d"/>
   <path d="m1074.6 4522.7c0-0.722 0.019-1.4367 0.026-2.1573h419.16c0 0.7206 0.025 1.4353 0.025 2.1573 0 3.3058-0.085 6.5924-0.2352 9.8599h-418.74c-0.1515-3.2675-0.2368-6.5541-0.2368-9.8599" style="fill:#fccc5a"/>
   <path d="m1075.8 4545.2c-0.2441-2.2911-0.4558-4.591-0.6279-6.9012h418.05c-0.172 2.3102-0.3838 4.6101-0.6294 6.9012h-416.8" style="fill:#fccc5a"/>
   <path d="m1074.8 4514.8c0.1838-4.9057 0.5309-9.7717 1.0441-14.586h416.8c0.5133 4.8145 0.8603 9.6805 1.0426 14.586h-418.88" style="fill:#fccc5a"/>
   <path d="m1076.7 4492.9c0.8426-5.913 1.9146-11.751 3.2381-17.495h408.5c1.325 5.7439 2.3955 11.582 3.2382 17.495h-414.98" style="fill:#fccc5a"/>
   <path d="m1081.8 4468.2c2.1058-7.8497 4.6484-15.518 7.6159-22.977h389.65c2.9676 7.4585 5.5086 15.127 7.6174 22.977h-404.88" style="fill:#fccc5a"/>
   <path d="m1093.5 4435.7c4.7998-10.501 10.435-20.542 16.83-30.025h347.81c6.3938 9.4834 12.029 19.524 16.827 30.025h-381.47" style="fill:#fccc5a"/>
   <path d="m1115.7 4398.1c12.457-16.824 27.37-31.713 44.212-44.145h248.7c16.839 12.432 31.753 27.321 44.21 44.145h-337.12" style="fill:#fccc5a"/>
   <path d="m1394.6 4344.5h-220.78c32.059-19.904 69.878-31.409 110.39-31.409 40.51 0 78.332 11.505 110.39 31.409" style="fill:#fccc5a"/>
   <path d="m1284.2 4329.1c-106.91 0-193.59 86.67-193.59 193.59 0 106.91 86.674 193.59 193.59 193.59 106.92 0 193.59-86.673 193.59-193.59 0-106.92-86.674-193.59-193.59-193.59zm0 392.11c-109.64 0-198.52-88.88-198.52-198.52 0-109.64 88.88-198.52 198.52-198.52 109.64 0 198.52 88.879 198.52 198.52 0 109.64-88.88 198.52-198.52 198.52" style="fill:#fff"/>
   <path d="m1230 4360.3c10.32 23.634 17.724 52.302 19.267 75.304 0.9293 13.879 0.1176 25.378-1.3867 34.558l10.78-34.194c-2.8013-6.0218-3.5087-11.832-2.1617-17.692 0.5015-2.1837 1.522-4.1822 2.9837-5.8571l1.5015-3.7999c0.9029-2.2881 3.1028-3.8013 5.563-3.8248l1.9484-0.019 3.719-11.791c-1.997-2.2088-2.8617-4.5102-3.2205-6.3072-0.8514-4.2571 0.4559-9.0202 3.6837-13.414 1.5514-2.1088 4.5131-4.5513 13.519-5.4777l1.8955-4.6734c-1.9146-1.7632-3.8601-3.6057-5.6557-5.7792-1.0014-0.8249-2.0043-1.7205-2.966-2.716-0.7735 0.497-1.6735 0.8235-2.6484 0.922zm19.76 309.05c7.635-7.46 21.509-19.81 36.034-26.798-0.2236-1.4485-0.049-2.9366 0.5323-4.3278 0.4838-1.1632 1.2735-3.0513 5.0836-4.5689l-9.4496-7.3585c-0.3029-0.2368-0.5809-0.4971-0.8265-0.7779-4.0704-2.7661-8.0835-5.638-11.98-8.4276-2.1293-1.5235-4.2586-3.0485-6.4012-4.5587-8.4335-5.9439-15.276-11.788-21.282-18.196-1.247 0.25-2.4528 0.4867-3.5954 0.7088l-37.922 7.5467c0.919 1.3912 1.7911 2.6867 2.4263 3.5852 1.5588 2.2058 4.8013 6.7924 6.9703 8.7055 1.5779 1.3941 3.9161 4.6381 10.732 14.308 5.5159 7.8261 12.382 17.567 18.143 24.79 5.1689 6.4776 8.954 11.661 11.535 15.368zm240.18-318.11c0.018 3.1851-2.4411 5.8365-5.6204 6.0615l-45.847 3.2322c0.2662 0.7029 0.5397 1.4499 0.8324 2.2617 0.021 0.056 0.041 0.1103 0.059 0.1661 0.525 1.4588 1.0338 2.9793 1.5852 4.7396 0 0.01 0.01 0.022 0.01 0.032v0.01l0.2588 0.8308c0.5823 1.9176 1.0352 3.5131 1.4323 5.0469l0.1323 0.5411c0.375 1.4705 0.7206 2.9631 1.0485 4.4851l0.2823 1.3647c0.2574 1.2661 0.4971 2.5381 0.7177 3.8278l0.04 0.2279c0.081 0.4765 0.1617 0.9529 0.2352 1.4235 0.2045 1.269 0.3809 2.5499 0.5427 3.8072l0.059 0.4426c0.05 0.3838 0.1029 0.7676 0.1485 1.1558 0.2235 1.9029 0.3956 3.6734 0.5279 5.416 0.1221 1.6323 0.2133 3.2602 0.275 4.8807 1.9838 52.271-26.518 94.749-64.761 96.696-1.2206 0.088-2.4837 0.1324-3.7587 0.1324-0.6029 0-1.2073-0.01-1.6985-0.026-7.135-0.09-12.961-1.1044-17.365-2.2778l-9.4453 16.379 0.55 0.6794c0.9118 1.1353 2.1146 2.6396 3.2837 4.219 4.7307 6.3879 9.0747 13.105 13.27 19.601 4.088 6.3277 8.3158 12.87 12.819 18.948 0.2779 0.375 0.525 0.75 0.7558 1.125 1.6985 2.3043 3.0558 4.2277 4.2572 6.0291 1.0235 1.5367 2.0043 3.2411 2.9852 5.2042 0.8 1.3456 1.5764 2.7058 2.3411 4.0749 8.0144 10.642 12.083 20.555 12.772 31.122 3.1175 15.361-0.053 32.718-4.5866 45.566v0s-7.435 14.866-7.8129 15.167c-4.1748 7.9674-8.2732 15.201-14.148 22.129-1.0632 1.2529-2.1808 2.516-3.3676 3.7895l47.438 1.3867c3.2498 0.096 5.8438 2.7485 5.8688 6.0013 0.022 3.2542-2.5337 5.9438-5.785 6.0835l-8.8644 0.3883c0.9706 1.0529 1.5691 2.4513 1.5941 3.9925 0.056 3.2307-2.4411 5.9335-5.6689 6.135l-13.382 0.8353 19.376 0.4397c3.2469 0.075 5.8571 2.7028 5.9071 5.9512 0.05 3.2469-2.4734 5.9556-5.7174 6.1321l-114.41 6.1703c1.3456 11.395 0.2515 31.068-18.764 45.5-1.2926 1.2058-4.6057 3.7469-9.5688 3.7469-2.4528 0-4.8998-0.6382-7.2717-1.8926-3.4734-1.8381-15.422-8.4629-23.301-16.511-0.1353-0.1367-0.2647-0.2823-0.3852-0.4308-8.3041-6.9248-13.77-14.542-16.686-23.243-1.4559-4.341-1.8264-9.0438-1.1029-13.97 0.1058-0.7293 0.3455-1.4323 0.7043-2.0764 0.2397-0.4279 0.503-0.8646 0.7868-1.3028-0.2662-1.0868-0.2368-2.2514 0.1426-3.3764 0.4706-1.397 1.025-2.7999 1.6558-4.1983-3.8631-5.3866-7.0835-13.867-8.0791-19.016-1.2411-3.3395-2.1793-6.0071-3.016-8.3879-1.7588-5.0012-3.0337-8.6276-5.8424-14.774-1.0265-1.8249-3.3617-4.3439-5.2484-6.3777-0.9029-0.972-1.7587-1.8999-2.4925-2.7469-2.7396-3.1749-4.8616-6.638-6.9115-9.9864l-0.8529-1.3896c-4.2998-6.9542-8.4482-13.824-11.917-21.299-3.0719-2.966-11.763-10.47-13.366-11.817-1.697-1.425-2.6514-3.5087-3.6602-5.7145-0.031-0.068-0.063-0.1397-0.099-0.2118-2.2911-0.2661-5.638-1.1293-7.5438-4.541-0.2706-0.4838-0.4926-0.9676-0.6735-1.447-3.2263-1.3793-4.219-3.8881-4.5204-5.1851-0.3206-1.3823-0.3206-3.0101-0.1956-4.5057-0.6573-1.022-1.1411-2.2499-1.3132-3.6822-0.1014-0.8411 0.096-6.6747 2.4543-10.7-2.1719-3.4264-4.4189-6.013-6.7129-7.7144-2.9411-2.1838-4.1396-6.0145-2.9778-9.5305 1.1367-3.4352 4.2057-5.7439 7.6423-5.7439 1.7043 0 3.3616 0.5632 4.7924 1.6249 0.9632 0.7147 1.8662 1.4558 2.7161 2.2176 1.1279-10.292 5.488-20.551 17.977-24.192 0.9382-0.2721 1.8911-0.4118 2.8323-0.4118 3.6028 0 6.8703 2.0588 8.5261 5.3704 1.4941 2.9837 1.4411 6.4909-0.062 9.2849-0.3911 1.1367-0.9837 2.1852-1.7705 3.1323-4.0998 4.9248-5.8894 7.6408-5.8203 12.998 0.034 2.616 0.5235 5.8497 1.4205 9.3966 8.7423-1.7955 27.603-5.6365 41.64-8.254-3.619-3.944-7.3335-8.0453-9.4334-14.054-1.6029-4.5866-0.5588-11.069-0.3324-12.322 0.034-0.1941 0.078-0.3867 0.1309-0.5764 1.0264-3.619 4.1425-7.1188 7.1777-9.4055-1.1662-2.894-1.9779-5.2027-2.5264-7.0585-2.7102-0.8397-5.2174-2.3103-7.5026-4.3999-2.7382 0.4059-5.5425 0.4412-8.3409 0.1206-0.3176 0.078-0.6456 0.1309-0.9823 0.1574-0.8132 0.063-1.6308 0.094-2.4484 0.094-29.665 0-61.018-41.21-74.552-97.989-10.528-44.173-6.9953-86.046 8.1556-108.1-9.2732-1.872-13.814-4.1277-14.445-4.4542-2.4808-1.2955-3.7484-4.1234-3.0661-6.8365 0.675-2.6911 3.094-4.5719 5.863-4.5719h0.073l39.028 0.4677c0.2265-0.068 0.4544-0.1294 0.6867-0.1839 0.4588-0.1102 0.9294-0.1661 1.4015-0.1661h11.707l194.42 2.447 0.25-0.025c2.9499-0.2132 6.0262-0.1647 9.1879 0.1456l84.974 1.0676c3.2117 0.041 5.8292 2.5852 5.963 5.7968 0.128 3.0852-2.0867 5.7483-5.0968 6.2203l10.125 0.6118c3.1792 0.1912 5.6659 2.819 5.6836 6.0042 0.015 3.1881-2.4455 5.838-5.6219 6.063l-1.0911 0.076 10.223 0.6147c3.1822 0.1926 5.6689 2.8205 5.6836 6.0056 0.018 3.1852-2.4425 5.838-5.6218 6.0616l-10.497 0.7396 12.835 0.775c3.1837 0.1927 5.6704 2.819 5.6836 6.0057" style="fill:#fff"/>
   <path d="m1346.4 4466.2c-0.8676-0.8882-1.7234-1.7984-2.5587-2.7513l19.54-59.295 2.0146 0.022c-0.04 0.6382-0.2014 1.4705-0.5823 2.5926-1.6882 4.9718-17.898 57.743-18.414 59.431" style="fill:#fccc5a"/>
   <path d="m1361.8 4477.4c-0.9529-0.4456-1.9014-0.9191-2.8337-1.4382 17.601-33.488 36.015-68.816 36.263-70.527 0 0 2.2558-0.9647-0.1485 4.3498-1.8309 4.041-23.17 47.188-33.281 67.615" style="fill:#fccc5a"/>
   <path d="m1340.9 4492.6s-6.76 4.3483-4.8306-4.2366c0.3132-1.397 1.2749-4.6572 2.6601-9.1173 2.2779 1.6749 4.6234 3.1793 7.0292 4.5057-2.9926 5.4454-4.8587 8.8482-4.8587 8.8482" style="fill:#fccc5a"/>
   <path d="m1401.4 4320.7 70.91 4.2718-60.593 4.2719c-3.2499-3.241-6.7027-6.0997-10.317-8.5437" style="fill:#fccc5a"/>
   <path d="m1415.9 4333.8 65.584 3.9528-59.396 4.1896c-1.9469-2.8823-4.0072-5.6057-6.188-8.1424" style="fill:#fccc5a"/>
   <path d="m1424.2 4347.7 59.692 3.5955-55.762 3.9336c-1.2249-2.5999-2.5337-5.1115-3.9292-7.5291" style="fill:#fccc5a"/>
   <path d="m1276.2 4349.5-55.254 5.6174c12.614 25.771 20.724 57.677 22.277 80.867 2.6558 39.657-9.404 58.595-9.404 58.595s0.3102-0.6794 0.7896-2.0528c2.5264-7.238 9.7923-33.988 1.5353-84.816-2.1235-13.07-5.5028-24.758-9.507-35.071-0.031-0.081-0.062-0.1647-0.093-0.2456-2.4131-6.1821-5.0468-11.867-7.7717-17.055-1.7705-3.3719-3.5793-6.5218-5.388-9.4702-0.8221-1.3382-1.6426-2.6367-2.4588-3.8896-2.291-3.5057-4.5557-6.6835-6.7173-9.5114-0.5485-0.7176-1.0912-1.4117-1.625-2.0866-2.5146-3.169-4.8542-5.8527-6.8938-8.0527-0.4147-0.4029-0.8353-0.7749-1.2529-1.1661l0.1691 0.016c-1.8426-1.9411-4.3381-3.4366-5.4689-4.4851 0 0 0.2632 0.021 0 0 0 0 6.0998 2.9396 8.0762 4.6968l55.389 4.5307-47.147 4.2058c0.6676 0.822 1.3293 1.6617 1.9837 2.5278l60.695 3.5057-54.532 5.5454c0.8706 1.4147 1.7279 2.8484 2.5661 4.3248l60.031 3.469" style="fill:#fccc5a"/>
   <path d="m1369.5 4606.7c13.439 8.8129-5.3468 33.056-5.3468 33.056 0-0.3765 6.5277-15.18-0.7044-20.526-3.5852-2.6469-11.347-1.022-11.347-1.022s8.6261-6.8865 12.569-3.0205c0 0-3.9601-5.5042-11.123-3.5454 0 0 2.9749-5.1925 6.8983-3.2161 0 0-45.978-29.577-47.666-30.9-3.8086-2.9852-6.1027-5.4821-6.9703-6.0204-0.1779-0.1088 0.3118 0.1353 1.2897 0.6412 1.4764 0.7632 4.1101 2.147 7.532 3.9601 4.0837 2.1676 9.2497 4.9263 14.827 7.9379 0.7985 0.4324 1.6073 0.8677 2.4234 1.3103 1.6911 0.9147 3.4057 1.847 5.1307 2.7866 13.042 7.1101 26.534 14.657 32.487 18.558" style="fill:#fccc5a"/>
   <path d="m1147.5 4310.6c0.9632 0.2265 1.9602 0.3515 2.9852 0.3353h0.029c-23.074 12.064-31.616 60.642-18.874 114.1 12.508 52.479 41.197 91.542 66.868 93.31-26.578 2.0749-57.521-38.2-70.647-93.27-12.88-54.048-4.0058-103.1 19.639-114.48" style="fill:#fccc5a"/>
   <path d="m1333.4 4621c3.3234 5.0072-2.5367 24.211-2.5367 24.211s0.9205-8.8261-0.4221-17.632c-1.347-8.8056-8.6834-11.757-7.6261-6.7292 1.0558 5.0292-0.1103 14.616-0.1103 14.616s-1.9573-19.886-11.61-28.103c-5.8822-5.0086-16.84-13.979-24.518-20.232-4.9248-4.0116-8.5011-6.9086-8.5011-6.9086s3.4999 2.4088 8.7217 6.0498c14.952 10.42 44.136 31.018 46.603 34.728" style="fill:#744b82"/>
   <path d="m1263.8 4735.9c9.6981 6.3292 17.551 17.213 16.457 21.19-1.0956 3.9793-14.172-0.05-21.223-6.2159-7.0527-6.1674-11.27-12.36-11.27-12.36s1.9734 8.6717 7.5114 14.474l-7.9967-6.1571s5.9483 9.3894 11.661 13.87c0 0-25.246-11.657-23.268-22.07 1.9764-10.411 20.267-7.863 28.128-2.7323" style="fill:#744b82"/>
   <path d="m1312.8 4690.8s-5.2145-11.476 0.772-17.77c0 0-2.3043 15.705 5.0778 16.957 0 0-6.5071-8.6291 2.6469-19.111 9.1556-10.483 19.135-33.444 30.943-24.112 11.807 9.3335-2.6866 34.418-12.619 43.019 0 0-2.644 2.4278-6.5233 4.9218-4.4086 2.8367-10.419 5.7601-16.052 5.3116-4.3395-0.3441-8.3129-2.6617-10.958-6.1012-3.8116-4.9498-4.863-12.226-0.2485-19.298 0 0-1.0073 12.86 6.9615 16.183" style="fill:#744b82"/>
   <path d="m1356.6 4572.9c-4.066 1.4941-9.7525 1.5794-14.499-0.063-8.7835-3.0411-12.801-15.635-12.441-14.883 3.1911 6.6365 12.613 10.92 12.613 10.92-4.4116-3.2896-5.7351-10.572-5.7351-10.572 5.4924 7.2409 11.736 6.3453 11.736 6.3453-5.8189-1.697-14.529-14.533-17.876-24.646-1.8293-5.5144-2.0675-10.222 0.6368-11.866 0.5676-0.3441 1.219-0.4441 1.9323-0.3735 7.9614 0.7897 24.008 25.906 27.996 35.696 0.4632 1.1323 0.7647 2.0646 0.872 2.7249 0.5088 3.1572-1.7779 5.4439-5.2351 6.7173" style="fill:#744b82"/>
   <path d="m1229.9 4689.2c-4.5498-1.4676-9.4555-20.127-9.4555-20.127l5.7469 8.0703s-4.4572-11.294-3.1676-14.71c1.2897-3.4131 5.6895 2.0234 8.7703 8.0394 3.0837 6.0174 2.6558 20.193-1.8941 18.727" style="fill:#744b82"/>
   <path d="m1325.4 4370.2c0.072-0.9853-0.059-2.0573-0.2971-3.1323-0.8661-3.8777-3.2116-7.7908-3.2116-7.7908 0.041 4.1572-2.2029 6.4453-2.2029 6.4453 0.8794-6.3747-4.4027-11.216-8.4996-13.958-2.4705-1.6543-4.5116-2.5425-4.5116-2.5425s2.1617 2.2999 3.6484 4.4969c1.5749 2.3264 2.3852 4.5336-0.9235 3.7895-0.1677-0.037-0.3544-0.1088-0.5279-0.1588-6.5542-1.8955-18.113-12.645-18.162-17.796-0.038-3.7175 13.252 1.7602 23.02 7.035 4.1322 2.2322 7.6394 4.4292 9.2276 5.8762 2.7543 2.5058 3.3102 7.1409 3.2102 11.047-0.096 3.6631-0.7691 6.6895-0.7691 6.6895" style="fill:#744b82"/>
   <path d="m1232.9 4576.2v0.01c-1.0205 0.1588-0.5088 0.075 0-0.01" style="fill:#4e2d62"/>
   <path d="m1376.6 4492c1.5838 0.02 3.2278 0 4.9483-0.09-1.6587 0.1191-3.3087 0.1411-4.9483 0.09" style="fill:#4e2d62"/>
   <path d="m1433.7 4364.9c1.1852 3.2984 2.244 6.6909 3.1484 10.189-0.9044-3.4954-1.9632-6.8909-3.1484-10.189" style="fill:#4e2d62"/>
   <path d="m1433.7 4364.9c-0.5367-1.4955-1.0911-2.9807-1.6852-4.4321 0.5941 1.4514 1.1485 2.9366 1.6852 4.4321" style="fill:#4e2d62"/>
   <path d="m1344.4 4515.2c-0.6911-0.8427-1.3793-1.6838-2.0749-2.5264 0.6956 0.8412 1.3838 1.6852 2.0749 2.5279" style="fill:#4e2d62"/>
   <path d="m1319.2 4718.9c-0.022 0.01-0.041 0.015-0.062 0.022-0.4 0.1279-0.8044 0.247-1.2044 0.3735 0.3971-0.125 0.8015-0.247 1.1985-0.3735 0.024-0.01 0.043-0.015 0.068-0.022" style="fill:#4e2d62"/>
   <path d="m1298.7 4724.5c-1.6147 0.3661-3.1911 0.7102-4.6557 1.0102-0.9294 0.1912-1.7735 0.3809-2.5867 0.375l4.2969-0.7382c0.9544-0.2029 1.9381-0.4191 2.9455-0.647" style="fill:#4e2d62"/>
   <path d="m1423.5 4397.6c2.8102 37.513-13.141 70.254-35.747 81.794 7.7056-2.169 14.868-6.9394 21.012-14.055 13.65-15.807 19.099-41.056 17.114-67.564-2.8219-37.728-21.08-68.053-45.335-74.275 25.35 11.33 40.366 39.457 42.956 74.1zm-56.889-74.974-1.7499-0.1823c-14.761 2.7896-27.128 14.527-34.9 31.322 0.031 0.056 0.062 0.1162 0.093 0.1721 3.763 7.7056 2.8881 16.223 2.1057 24.502l37.641 5.31c1.7426-3.8704 4.6998-6.6394 8.4291-7.3247 5.9512-1.0896 11.958 3.4514 14.892 10.617l0.4353 0.062s3.2028 13.36 1.7338 17.764c0 0.1941-0.013 0.3985-0.041 0.6103-0.2485 1.7102-18.662 37.038-36.263 70.527 0.9323 0.5191 1.8808 0.9926 2.8337 1.4382 3.3867 1.5808 6.8909 2.6984 10.47 3.294l1.7617-0.2177c28.397-3.5204 48.13-39.837 44.923-82.68-2.9969-40.09-25.509-72.426-52.364-75.213zm-177.45-5.8512c1.7794 1.3455 3.5469 2.8396 5.2998 4.4689 0.4176 0.3912 0.8382 0.7632 1.2529 1.1661 2.0396 2.2 4.3792 4.8837 6.8938 8.0527 0.5338 0.6749 1.0765 1.369 1.625 2.0866 2.1616 2.8279 4.4263 6.0057 6.7173 9.5114 0.8162 1.2529 1.6367 2.5514 2.4588 3.8896 1.8087 2.9484 3.6175 6.0983 5.388 9.4702 7.2982 13.891 13.954 31.341 17.371 52.371 8.257 50.827 0.9911 77.578-1.5353 84.816-0.2632 0.6838-0.5117 1.3926-0.7896 2.0528 1.6969 4.4719 2.741 7.2291 2.741 7.2291s6.5056 11.191-2.3175 17.718c0.01 0.012 0.019 0.022 0.029 0.037 0.9132 1.3706 1.7852 2.7676 2.6543 4.1631 0.2103-0.2618 0.422-0.5206 0.6338-0.7823l27.599-87.535c-2.7293-4.9498-4.0896-10.101-2.7779-15.805 0.3662-1.5911 1.1868-2.8867 2.275-3.8749l1.9396-4.913 6.3365-0.062 6.2556-19.84c-6.5879-3.9689-4.6336-10.032-1.6484-14.094 1.5646-2.1293 7.3011-3.0514 12.839-3.3072l4.8718-12.019c-2.9469-2.8219-6.0174-5.3292-8.5232-8.482-3.7013-2.9734-6.8673-6.3438-7.5291-12.489-0.3676-3.4204 2.6911-7.3997 6.0263-8.0732 4.6983-0.9485 10.197-0.5647 15.735 0.8411 0.7779-1.0029 2.7161-3.2542 4.3396-2.9734 1.669 0.2868 11.47 3.8793 15.32 5.3057 5.4616-7.2218 11.932-13.082 19.158-17.19zm-14.81 85.05c1.0088-0.3073 2.0485-0.375 3.0896-0.2544-2.3161-1.4132-4.8086-1.9234-7.135-1.2161-5.6939 1.7308-8.2159 10.026-5.6321 18.524 1.8087 5.9453 5.638 10.394 9.7246 11.948-0.2383-0.6147-0.4691-1.2117-0.6941-1.7955-2.1235-2.1823-3.9146-5.1616-4.9851-8.682-2.5837-8.4982-0.062-16.79 5.6321-18.524zm-1.7999-79.113c-0.7838-0.01-1.5735 0.021-2.3705 0.093-1.9043-0.4058-3.7807-0.5088-5.613-0.2823 0.4353 0.043 0.8705 0.096 1.3087 0.1691-0.9411 0.018-1.8999 0.077-2.8748 0.1824-0.059-0.01-0.1162-0.013-0.1765-0.025-19.946 4.9468-26.475 49.32-14.568 99.28 11.557 48.48 36.237 84.444 55.995 82.338 0.1073 0.024 0.2176 0.032 0.325 0.053-0.016-0.034-0.032-0.068-0.046-0.1-0.6132-1.3529-1.225-2.722-1.847-4.0881-3.8248-8.3806-17.89-42.948-26.558-65.078-5.813-1.1661-11.552-7.1909-14.104-15.57-3.2484-10.68-0.076-21.108 7.0821-23.283 5.1483-1.569 10.947 1.5691 15.013 7.4203 1.0132-2.1999 2.6308-3.7719 4.6925-4.263 4.0336-0.9618 8.4158 2.516 10.536 8.0158 1.8823 2.8661 4.0307 8.7629 7.7673 17.761 2.7529 6.6306 10.317 26.283 17.09 44.019 1.6132 4.219 3.1808 8.3306 4.6278 12.13 0.031-0.122 0.068-0.2397 0.099-0.3617 0.2721-1.0368 0.5309-2.0926 0.7691-3.1837 0.015-0.075 0.029-0.1574 0.047-0.2324 0.2323-1.0852 0.447-2.1984 0.6455-3.3337 0.05-0.2838 0.096-0.5749 0.1412-0.8632 0.1603-0.9543 0.3073-1.9249 0.4426-2.9131 0.047-0.3456 0.093-0.6926 0.1368-1.0411 0.125-0.9882 0.2382-1.9911 0.3397-3.0102 0.034-0.3294 0.068-0.6559 0.1-0.9867 0.1088-1.1912 0.2014-2.3999 0.2794-3.6293 0.01-0.1588 0.025-0.3132 0.034-0.472 0.085-1.4441 0.1515-2.9087 0.1926-4.3999 0-0.087 0-0.1779 0.01-0.2617 0.037-1.3441 0.052-2.7087 0.053-4.0881 0-0.4014-0.01-0.8102-0.01-1.2161-0.01-1.0853-0.024-2.1808-0.054-3.2896-0.013-0.4867-0.029-0.9749-0.047-1.4661-0.037-1.0691-0.087-2.1484-0.1441-3.2352-0.025-0.4955-0.05-0.9852-0.081-1.4823-0.074-1.1896-0.1618-2.391-0.2588-3.5983-0.031-0.3897-0.056-0.7706-0.091-1.1603-0.1382-1.6117-0.2971-3.241-0.4794-4.8866-0.013-0.1353-0.034-0.2705-0.048-0.4073-0.1677-1.4852-0.3544-2.9808-0.5588-4.4881-0.071-0.5249-0.1486-1.0543-0.225-1.5822-0.1618-1.1324-0.3294-2.2691-0.5103-3.4117-0.097-0.6147-0.2015-1.2308-0.3044-1.8484-0.1823-1.0897-0.3735-2.1838-0.5735-3.2852-0.1147-0.6235-0.2279-1.247-0.3471-1.8735-0.2235-1.169-0.4602-2.344-0.7043-3.5175-0.1133-0.547-0.2206-1.0911-0.3383-1.6367-0.3691-1.719-0.7543-3.4425-1.1676-5.1747-10.302-43.228-29.303-82.125-53.623-82.435zm39.953 178.18c0.4573 1 0.8911 1.9411 1.2926 2.7955 4.3204-1.797 7.9276-5.5792 10.77-10.947-0.8971-2.4411-1.8985-5.1645-2.972-8.0894-7.0791-19.273-17.407-47.376-23.092-62.914-0.975 1.3573-2.2514 2.3204-3.7763 2.6822-1.9073 0.4529-3.8896-0.096-5.6777-1.3705-0.5265 4.3821-2.2529 8.0614-4.9278 10.261 8.41 20.648 21.379 52.218 28.383 67.581zm16.552 4.0984c-0.059-0.1603-0.153-0.425-0.2794-0.7691-2.147 3.2117-4.5513 5.9321-7.1939 8.1129 4.3278 0.3383 8.7615-3.7733 7.4733-7.3438zm-6.7262 18.604v0zm0-0.037v-0.1088 0.1088zm58.873 11.119c2.5484-5.413 6.2997-10.497 11.242-12.657 1.9734-0.8632 3.8454-0.038 4.9174 1.3073 1.8382 1.5647 2.3499 4.6057-0.4014 5.9307-1.4618 0.7044-2.6485 1.7632-3.6352 3.0425 5.9556-1.1941 11.713-2.3896 16.61-3.4793-3.3469-6.4953-6.4791-13.189-8.3305-20.051-0.7206-1.622-1.4205-3.2543-2.097-4.9013-0.3412-0.8338-0.525-1.6205-0.5985-2.369-0.5706-2.2735-0.8647-4.6322-0.8058-7.0718 0.071-2.8484 0.994-5.5204 2.0455-8.1306 0.7411-1.4499 1.1396-2.6043 1.1823-2.9895 0.1426-1.3573 7.1938-16.955 5.7733-33.832 0.012-0.1162 0.021-0.2309 0.029-0.3456-0.032-0.1309-0.068-0.2647-0.099-0.397-0.019-0.1868-0.034-0.3721-0.054-0.5603 0 0-0.012 0.09-0.032 0.2309-2.2984-8.985-4.541-17.474-6.5247-24.626l-5.8631 3.8557s1.3573 3.3896 3.2837 7.1497c1.3868 2.7058 0.4103 4.0602-0.6014 4.616 3.1043 5.8601 5.1645 10.451 7.1277 16.794-2.1367 9.5172-7.0527 19.208-13.982 32.058-19.651 22.359-14.738 26.515-28.465 50.02 5.2233-0.9397 12.047-2.2044 19.279-3.594zm-4.819 20.349c0.2177-3.3984 0.6721-6.7895 1.4103-10.182l-11.208 1.9691c3.3704 2.5822 6.6071 5.4821 9.7981 8.2129zm-33.934 31.406-56.589 9.8716s0.065 0.1074 0.172 0.2927c0.2074 0.35 0.5971 1.0014 1.1279 1.8837 2.4411 4.0572 7.8585 12.867 12.067 18.393 0.4853 0.6368 0.9544 1.2353 1.4014 1.7705 0.2073 0.2486 0.4235 0.5191 0.65 0.8015 5.8983 7.4056 17.971 26.156 18.712 27.606 0.772 1.5029-7.2983 0.8265-8.0085 5.3689 0 0 4.4454-2.6896 7.4732-2.2161 0 0-4.1293 2.9382-4.0925 6.466 0 0 4.9851-5.2763 8.2659-4.8057 3.2792 0.4735 15.854 17.418 25.364 27.342-0.4382-0.4603 20.417-15.776 22.367-16.848 1.8764-1.0323 3.6528-2.3102 5.4351-3.4558 3.9734-2.5499 8.3585-3.8366 12.41-6.1468 4.8336-2.7558 9.9849-5.6512 15.624-6.2203 10.382-1.047 15.904 3.2454 15.904 3.2454s-8.0246-8.9908-17.073-7.0115c0 0 6.56-5.3571 19.479 1.8867 0 0-6.1262-8.2541-17.139-11.426-2.7734-1.2617-5.4763-2.7734-8.1247-4.2704-11.116-6.2865-21.202-13.955-31.627-21.305-8.4496-5.9557-15.904-12.269-22.596-19.857l34.39-7.5762s3.5763 2.897 8.5011 6.9086c7.6777 6.2527 18.636 15.223 24.518 20.232 9.6525 8.2174 11.61 28.103 11.61 28.103s1.1661-9.5864 0.1103-14.616c-1.0573-5.0277 6.2791-2.0764 7.6261 6.7292 1.3426 8.8055 0.4221 17.632 0.4221 17.632s5.8601-19.204 2.5367-24.211c-2.4661-3.7101-31.65-24.308-46.603-34.728-5.2218-3.641-8.7217-6.0498-8.7217-6.0498zm-12.597 102.79c4.5499 1.4661 4.9778-12.71 1.8941-18.727-3.0808-6.016-7.4806-11.452-8.7703-8.0394-1.2896 3.416 3.1676 14.71 3.1676 14.71l-5.7469-8.0703s4.9057 18.66 9.4555 20.127zm76.254 4.6954c2.6455 3.4395 6.6189 5.7571 10.958 6.1012 5.6336 0.4485 11.644-2.4749 16.052-5.3116 3.8793-2.494 6.5233-4.9218 6.5233-4.9218 9.932-8.6012 24.426-33.685 12.619-43.019-11.808-9.332-21.787 13.629-30.943 24.112-9.154 10.482-2.6469 19.111-2.6469 19.111-7.3821-1.2514-5.0778-16.957-5.0778-16.957-5.9865 6.2939-0.772 17.77-0.772 17.77-7.9688-3.3234-6.9615-16.183-6.9615-16.183-4.6145 7.0718-3.5631 14.348 0.2485 19.298zm5.2454-262.41c4.5851-20.704 0.2721-36.724-1.8573-41.616-0.7485-1.7293-1.7322-2.8866-2.5351-3.3278-1.4706-0.8058-2.3411 0.825-0.082 5.9998 1.0603 2.4249 1.8882 5.0777 2.5426 7.8247 3.4057 14.302 1.9322 31.119 1.9322 31.119zm-17.912-28.294c-0.5676 0.6956-3.2499 8.063-7.0409 18.992l-0.078-0.026-0.022 0.062-3.0352 9.085-8.8084 26.344-0.01 0.022-0.079-0.076c-1.8308 5.4542-3.691 11.017-5.535 16.545 1.8072-4.2925 3.8336-8.4938 5.9233-12.754l13.604-34.237 0.6456-1.6131 0.7279-1.8397 9.0849-5.6262c-2.769-9.6129-4.8042-15.58-5.3777-14.877zm15.401-45.791c0.1735 0.05 0.3602 0.1221 0.5279 0.1588 3.3087 0.7441 2.4984-1.4631 0.9235-3.7895-1.4867-2.197-3.6484-4.4969-3.6484-4.4969s2.0411 0.8882 4.5116 2.5425c4.0969 2.7426 9.379 7.5836 8.4996 13.958 0 0 2.2441-2.2881 2.2029-6.4453 0 0 2.3455 3.9131 3.2116 7.7908 0.2383 1.075 0.3691 2.147 0.2971 3.1323 0 0 0.6735-3.0264 0.7691-6.6895 0.1-3.9057-0.4559-8.5408-3.2102-11.047-1.5882-1.447-5.0954-3.644-9.2276-5.8762-9.7672-5.2748-23.058-10.752-23.02-7.035 0.05 5.1512 11.608 15.901 18.162 17.796zm54.612 261.9c7.2321 5.3454 0.7014 20.149 0.7044 20.526 0 0 18.786-24.243 5.3468-33.056 0 0-22.931-13.272-35.657-20.16l-4.3836-2.4955c3.5145 0.8794 24.79 6.5895 33.859 12.448 0 0-4.1572-5.1028-10.58-8.3159-3.8175-1.9087-18.393-5.4159-22.612-5.9203-4.6674-11.335-6.7482-27.009-12.142-38.054-0.9632-1.9676-1.9911-3.9601-3.047-5.9747l-25.598 4.4968c-0.4985 2.8676-0.7382 5.6998-0.9235 8.0027-0.1662 2.0411-0.297 4.091-0.4073 6.1409 2.1617 0.9397 4.1983 2.1631 6.3733 3.3293 5.3027 2.844 9.0319 6.5556 11.429 11.308 0.8676 0.5383 3.1617 3.0352 6.9703 6.0204 1.6882 1.3235 47.666 30.9 47.666 30.9-3.9234-1.9764-6.8983 3.2161-6.8983 3.2161 7.163-1.9588 11.123 3.5454 11.123 3.5454-3.9425-3.866-12.569 3.0205-12.569 3.0205s7.7614-1.6249 11.347 1.022zm-1.6382-53.049c-0.1073-0.6603-0.4088-1.5926-0.872-2.7249-3.9881-9.7894-20.034-34.906-27.996-35.696-0.7133-0.071-1.3647 0.029-1.9323 0.3735-2.7043 1.6441-2.4661 6.3513-0.6368 11.866 3.347 10.113 12.057 22.949 17.876 24.646 0 0-6.2439 0.8956-11.736-6.3453 0 0 1.3235 7.282 5.7351 10.572 0 0-9.4217-4.2836-12.613-10.92-0.3602-0.7515 3.6572 11.842 12.441 14.883 4.7469 1.6426 10.433 1.5573 14.499 0.063 3.4572-1.2734 5.7439-3.5601 5.2351-6.7173zm-20.889-73.582s1.8661-3.4028 4.8587-8.8482c-2.4058-1.3264-4.7513-2.8308-7.0292-4.5057-1.3852 4.4601-2.3469 7.7203-2.6601 9.1173-1.9294 8.5849 4.8306 4.2366 4.8306 4.2366zm27.146-100.06c-0.01-0.725 0-1.4455 0.059-2.1485l-36.587-4.3924c-0.071 0.9558-0.1397 1.9131-0.2074 2.8719zm-21.782 4.7674-15.379-1.3455c-0.02 0.3926-0.05 0.7823-0.068 1.175 0.325 2.0999 0.6661 4.1969 1.0661 6.2747 1.0426 5.4072 2.0808 10.813 2.9249 16.246 0.1927 0.6779 0.3338 1.397 0.3603 2.1999 0 0.1339 0.015 0.2677 0.018 0.403 0.4324 3.0248 0.7956 6.0527 1.0529 9.0996 0.5677 2.8793 1.1103 5.7645 1.5809 8.6673 0.972 5.9909 1.7219 12.083 1.8558 18.171 0.3044 0.4177 0.6014 0.8456 0.9117 1.2515 5.4439-16.538 11.833-35.7 15.949-47.273-1.4573 0.087-3.5264 0.1618-4.4572-0.059-1.0794-0.2603-2.5279-5.9306-3.2749-9.1834-0.2676-0.035-0.5191-0.069-0.7235-0.103-3.0278-0.472-1.8176-5.5248-1.8176-5.5248zm42.168-11.008c-3.0352-4.2087-7.3865-6.5718-11.705-5.7807-2.2058 0.4029-4.1043 1.6058-5.6292 3.3366l4.7424 0.6706c1.8088-0.2632 3.6117 0.018 5.3175 0.747zm-36 85.317c10.867-19.748 26.436-47.985 33.063-59.765-0.2514 0.066-0.4955 0.1456-0.7529 0.1926-5.1498 0.9412-10.33-2.3322-13.539-7.8658l-5.8718-0.068-2.0146-0.022h-0.01c-2.5646 7.6864-12.391 37.178-19.534 59.295 0.8353 0.9529 1.6911 1.8631 2.5587 2.7513 1.9573 2.0043 3.9896 3.8454 6.0968 5.4821zm-88.702 264.23c-7.8615-5.1307-26.152-7.6791-28.128 2.7323-1.9779 10.413 23.268 22.07 23.268 22.07-5.713-4.4807-11.661-13.87-11.661-13.87l7.9967 6.1571c-5.538-5.8027-7.5114-14.474-7.5114-14.474s4.2174 6.1924 11.27 12.36c7.0512 6.1659 20.127 10.195 21.223 6.2159 1.0941-3.9777-6.7586-14.861-16.457-21.19zm134.08-417.47c1.2073 0.703 2.394 1.4559 3.566 2.25 3.6146 2.444 7.0674 5.3027 10.317 8.5437 1.4426 1.4411 2.844 2.9529 4.2027 4.5351 2.1808 2.5367 4.2411 5.2601 6.188 8.1424 1.2573 1.8631 2.4661 3.7851 3.6161 5.7806 1.397 2.419 2.7028 4.9307 3.9292 7.5277 0.103 0.2264 0.203 0.4529 0.3059 0.6764-0.1147-0.1-0.1765-0.1588-0.1765-0.1588s8.9453 32.352 8.385 52.513c-0.5573 20.161-7.8394 54.748-30.858 71.35-18.385 13.26-41.973 10.179-50.729 8.4011-0.3764-0.075-0.7235-0.1485-1.0396-0.2161l-2.447-0.5985-12.554 23.383-0.01 0.012 0.1206 0.1882 1.4794 2.2838 0.1161-0.2c5.2954 8.3849 27.767 44.142 31.518 53.429 2.1205 5.2439-0.8382 7.9174-4.3498 9.2805-3.5396 1.3765-7.6394 1.4191-7.6394 1.4191s5.2012 3.1543 10.15 2.9131c2.2602-0.1103 4.4645-0.9264 6.0997-3.0734 0 0 6.0924 4.8528-2.1587 10.98 0 0 7.9452 1.0558 8.6452-4.619 0 0 5.3292 3.7263 8.1394 20.705 2.8131 16.979-0.024 36.281-13.782 59.089 0 0 11.833-26.57 2.9558-45.378 0 0 2.441 17.739-6.0263 40.495-4.1719 11.21-10.908 23.628-21.583 33.358 1.7499-1.9367 3.3734-3.9969 4.8409-6.1732 11.55-17.118 14.723-53.241 14.723-53.241s-8.9423 37.8-17.023 49.863c-3.8233 5.7101-7.4967 9.9438-11.054 13.144-2.7514 2.4749-5.4381 4.3307-8.0747 5.7645-4.3116 2.3455-8.5026 3.5705-12.652 4.5572-0.4147 0.097-0.828 0.1926-1.2441 0.2882-5.7218 1.3073-10.883 1.0985-15.189-0.7647-1.5294-0.6617-2.944-1.5396-4.2396-2.6293-2.4557-2.0661-4.4733-4.913-5.9497-8.5996-0.078-0.2059-0.1735-0.3941-0.2529-0.6044-3.8793-10.354-1.1221-18.129-1.1221-18.129-4.6557 6.71-5.0218 13.072-3.666 18.584 0.4897 1.9911 1.1956 3.8734 2.0132 5.6189 0.4661 0.9897 0.8073 2.0676 1.0735 3.1749 0.1779 0.7382 0.3294 1.4867 0.4352 2.244 0.1912 1.3632 0.2765 2.7323 0.2971 4.0249 0.041 2.4043-0.1412 4.5263-0.3 5.8689-0.15 0.2794-0.3044 0.5558-0.4573 0.8235-1.3823-3.7205-3.2749-7.2248-5.0528-10.076-0.1706-0.2809-0.3411-0.5485-0.5132-0.8147-2.3646-3.691-4.3719-6.1041-4.3719-6.1041 5.1719 7.1291 5.8571 19.217 5.8571 19.217-5.4145-12.607-20.62-21.906-20.62-21.906 9.4422 7.2938 14.586 16.38 17.236 22.689 1.4441 3.4336 2.1485 6.0394 2.4029 7.0879l0.1147 0.5044c0.028 0.2588 0.046 0.5162 0.066 0.7735 1.494 17.568-6.713 35.934-12.15 38.469-5.516 2.5735-8.0983-3.6998-13.633-2.8895-5.5351 0.8087 8.6467 8.229 2.6013 8.2879-5.4321 0.051-20.999-9.2629-23.474-10.507-7.0733-5.6556-12.952-12.469-15.961-21.446-1.2278-3.6616-1.3999-7.4526-0.8543-11.173 4.1645-7.4438 11.533-8.5511 19.892-7.1879 9.8423 1.6043 18.208 6.813 18.208 6.813-2.6852-3.9411-9.5246-7.8424-9.5246-7.8424 9.2732 1.6088 22.808 13.76 22.808 13.76-9.8025-16.911-27.196-17.874-38.901-17.002-5.5762 0.4118-9.0143 3.0793-11.1 5.7586 0.8293-2.4631 1.9234-4.8454 3.1778-7.0777 0 0 6.3438-5.4703 6.3115-8.8702-0.035-3.4013 3.191-21.383 13.766-22.054 0 0-10.222-1.9794-15.163 14.698l-0.4941-12.089s-3.6734 10.997-1.9073 17.592c1.0573 3.9514-1.2764 7.6541-3.319 9.9967-3.8528-3.8469-7.8291-13.891-8.6732-18.949-4.0748-10.92-4.888-14.63-9.3011-24.265-1.8513-3.4601-6.0321-7.4247-8.5731-10.366-2.7793-3.219-4.9748-6.9983-7.1998-10.602-4.3836-7.0909-8.5908-14.058-12.014-21.627-2.5616-2.6852-13.354-11.961-14.522-12.942-1.3352-1.1191-2.8969-6.3954-4.0351-6.9512-1.1411-0.5559-4.7219 0.2352-5.8777-1.8308-1.1529-2.0676-0.034-3.5911-0.034-3.5911s-4.1557 0.2309-4.5498-1.4676c-0.3941-1.697 0.3264-5.2924 0.3264-5.2924s-1.5176-0.5515-1.7234-2.2529c-0.2059-1.6969 1.2514-7.3805 2.3807-7.7702 0.4588-0.1574 1.0824-0.5632 1.7662-0.9309-2.7455-5.2468-6.2616-10.469-10.801-13.839-2.3175-1.7191-0.1015-5.6822 2.2485-3.9366 5.0453 3.7439 8.232 8.3364 11.233 13.802 0.7279 1.3265 1.4161 2.8573 2.1073 4.469-2.3499-15.911-3.0264-34.73 12.65-39.297 3.8116-1.1117 5.888 3.4881 4.0204 5.9792-0.122 0.5867-0.3779 1.172-0.8352 1.722-4.5175 5.4262-7.3159 9.4658-7.2189 16.945 0.047 3.6057 0.7794 7.7497 1.8529 11.764 0.2779 0.3912 0.4838 0.8809 0.5867 1.4853 0.06 0.3573 1.4029 2.6205 1.4867 2.9734 0 0 39.131-8.1203 55.777-10.911 1.0073-0.1677 0.5044-0.091 0-0.01l0.9455-0.1823 25.346-4.8807 12.733-2.4543-39.26 3.0866-2.2823 0.178c-4.4101-5.291-9.4937-9.4188-11.804-16.033-1.1603-3.319-0.093-9.257-0.093-9.257 0.7206-2.5381 3.9146-5.7071 6.3983-7.163l12.448 21.212-9.4716-21.701c-1.5632-3.5234-6.0042-14.867-5.4939-15.688-4.4219-0.1809-7.7453-2.4146-10.501-5.8071-0.2868 0.079-0.5632 0.1823-0.8544 0.2515-27.362 6.5218-60.699-34.984-74.456-92.707-13.757-57.721-2.7264-109.8 24.637-116.32h11.629l194.76 2.45c0.1412-0.012 0.2779-0.032 0.4191-0.044 2.8337-0.2044 5.6409-0.1264 8.4173 0.1559l85.233 1.072-63.772 6.0968" style="fill:#4e2d62"/>
   <path d="m1327 4493.6c-0.6499 4.9306-2.5749 8.8128-6.985 11.513-0.5088 0.3103-1.0514 0.5779-1.6367 0.7897-9.6187 3.4749-18.13-10.201-12.476-18.132 3.0926-4.3351 6.8615-3.5616 9.6467-1.9735 2.3102 1.3191 3.9425 3.1999 3.9425 3.1999s-0.6897-3.1866-4.8086-6.8203c-1.0544-0.9294-2.3176-1.8852-3.8616-2.8249 0 0 1.5028 0.3382 3.4395 1.0808 3.4249 1.3132 8.2218 3.9072 8.6173 8.2409 0 0 0.4309-14.623-8.3099-15.699 0 0 7.8203-1.3705 11.179 5.7968-0.5867-6.9129-7.5658-11.339-7.5658-11.339 5.6247-0.6279 7.6967 6.1512 7.6967 6.1512s0.5676-14.932-1.5235-23.224c-2.0837-8.2879-6.3306-31.294-2.2057-36.44 4.1218-5.1468 4.1571 15.07 7.2864 35.819 3.1293 20.751-2.4411 43.294-2.4352 43.862" style="fill:#744b82"/>
   <path d="m1163 4322.8h-0.01" style="fill:#4e2d62"/>
   <path d="m1170.2 4322.8" style="fill:#4e2d62"/>
   <path d="m1278.1 4580.2-3.3999 2.2499-29.978 6.0469-54.624 9.9481s5.1175 8.0129 7.4159 11.264c2.2984 3.2528 5.3645 7.5055 7.9056 9.7496 2.541 2.2425 17.185 24.586 28.152 38.334 10.967 13.751 15.482 21.393 15.482 21.393-9.5114-9.9246-22.086-26.87-25.365-27.343-3.2808-0.4706-8.2659 4.8057-8.2659 4.8057-0.037-3.5278 4.0925-6.466 4.0925-6.466-3.0278-0.4735-7.4732 2.2161-7.4732 2.2161 0.7102-4.5424 8.7805-3.866 8.0085-5.3689-0.7412-1.4499-12.814-20.201-18.712-27.606-0.2265-0.2824-0.4427-0.5529-0.65-0.8015-0.447-0.5352-0.9161-1.1337-1.4014-1.7705-4.2087-5.5262-9.6261-14.336-12.067-18.393-0.5308-0.8823-0.9205-1.5337-1.1279-1.8837-0.1073-0.1853-0.172-0.2927-0.172-0.2927l92.182-16.082" style="fill:#fccc5a"/>
   <path d="m1209.9 4375s-24.086-41.082-39.19-39.926c0 0 14.718 10.941 18.854 21.483 0 0-12.372-15.81-24.784-9.332-18.621 9.7188-15.345 48.264-15.345 48.264s-16.629-69.534 14.577-75.468c25.48-4.8454 45.888 54.979 45.888 54.979" style="fill:#4e2d62"/>
   <path d="m1386.2 4346.5s6.0865 3.716 8.1217 18.815c0 0-7.1688-16.851-28.714-17.396-13.607-0.3441-26.452 12.595-26.452 12.595s6.3409-16.242 19.901-20.91c0 0-10.861-2.1425-23.933 13.857 0 0 4.2822-24.439 33.003-24.69 26.709-0.2353 51.092 31.891 43.663 71.015 0 0-1.8353-33.24-25.59-53.286" style="fill:#4e2d62"/>
   <path d="m1292.8 4401.5-44.111 126.47s2.6587 1.297 4.1366-1.9294c1.4808-3.2278 41.598-115.33 41.598-115.33s0.8456-8.0952-1.6235-9.2055" style="fill:#fccc5a"/>
   <path d="m1335.9 4490.9s3.3057-27.689 2.1529-37.562c-1.6515-14.092-9.5879-52.814-9.1379-58.612 0.4456-5.7983 2.6837-22.133 2.0014-26.978-0.8118-5.7865-0.925-14.048-0.925-14.048s4.8572 3.9337 3.4852 18.307c-1.3706 14.373-2.0058 18.498-1.7691 24.961 0.2338 6.463 6.1527 36.724 8.3203 52.07 2.1631 15.346-0.2133 29.984-4.1278 41.863" style="fill:#fccc5a"/>
   <path d="m1189.6 4399.5c-0.5661 0.04 7.1982-2.6676 10.872 5.7998 3.6749 8.4673 38.191 101.36 38.191 101.36s1.5131 6.5188-0.4721 7.3703l-39.597-107.58s-2.9529-7.3894-8.9938-6.9512" style="fill:#fccc5a"/>
   <path d="m1235.6 4310-115.64-1.3867s16.376 8.5643 55.424 5.7968l60.212-4.4101" style="fill:#4e2d62"/>
   <path d="m1330 4353.7s8.3835-25.034 41.17-23.734c31.743 1.2588 47.111 39.551 47.111 39.551s-8.8173-50.636-53.914-48.62c-29.575 1.322-34.368 32.803-34.368 32.803" style="fill:#4e2d62"/>
   <path d="m1397.9 4318.4s23.496 15.851 34.266 47.406l1.5558-0.8897s-9.8128-36.669-35.822-46.516" style="fill:#fccc5a"/>
   <path d="m1381.5 4491.9c-1.7205 0.087-3.3645 0.1102-4.9483 0.09-9.2467-0.1177-16.074-1.9058-20.255-3.4573l-13.955 24.202c0.6956 0.8426 1.3838 1.6837 2.0749 2.5264 0.3632 0.4485 0.7294 0.897 1.0897 1.3455 1.0749 1.3352 2.1308 2.6734 3.1352 4.0278 9.2246 12.45 16.846 26.068 26.086 38.546 0.2161 0.2941 0.4058 0.5867 0.5764 0.8779 1.4647 1.9852 2.9014 3.9866 4.269 6.0365 1.0205 1.5309 1.8984 3.122 2.7013 4.744 0.8868 1.4808 1.7367 2.9837 2.5808 4.4924 6.3556 8.3659 11.216 17.535 11.833 28.603 3.0366 14.498 0.4117 30.914-5.2557 45.273-4.913 12.219-13.811 25.711-19.893 32.881-3.994 4.7131-8.5203 9.1408-13.214 13.326l61.718 1.8058-67.194 2.9278c-1.2043 1.0103-2.4072 2.0102-3.6086 2.9911-1.2191 1.0014-2.4117 1.9366-3.5925 2.8248l61.345 1.7764-71.022 4.4337c-3.7616 1.9955-7.9703 3.7837-13.188 5.5851-1.1661 0.4029-2.3543 0.7955-3.5513 1.1793-0.025 0.01-0.044 0.013-0.068 0.022-0.397 0.1265-0.8014 0.2485-1.1985 0.3735 0.4-0.1265 0.8044-0.2456 1.2044-0.3735l94.051 2.1337-119.82 6.463-1.6749-0.8161c1.4396 4.9851 7.4188 30.484-15.289 47.466 0 0-3.9881 4.3234-10.066 1.1073-6.0777-3.216-15.71-9.1687-21.817-15.407-0.091-0.093 0.031-0.048 0.3118 0.093 2.4749 1.2441 18.042 10.558 23.474 10.507 6.0454-0.059-8.1364-7.4792-2.6013-8.2879 5.535-0.8103 8.1173 5.463 13.633 2.8895 5.4365-2.5351 13.644-20.901 12.15-38.469-0.021-0.2573-0.038-0.5147-0.066-0.7735 0.8132 0.01 1.6573-0.1838 2.5867-0.375 1.4646-0.3 3.041-0.6441 4.6557-1.0102-1.0074 0.2279-1.9911 0.4441-2.9455 0.647l-4.2969 0.7382-0.1147-0.5044-0.672-2.9411s1.7117-1.4837 3.6395-4.0263c0.6941-0.9117 1.4117-1.9572 2.0941-3.1248 0.1529-0.2677 0.3073-0.5441 0.4573-0.8235 0.4544-0.8441 0.8852-1.7338 1.2632-2.6808 0.322-0.8015 0.6999-1.4485 1.122-1.9735 2.9646-3.6969 7.9188-1.1382 7.9188-1.1382 8.3188-0.01 15.72-1.1573 22.326-3.1572 4.241-1.2838 8.1511-2.919 11.75-4.841 3.0705-1.6411 5.9218-3.4807 8.5614-5.4894 1.5529-1.1824 3.0323-2.4235 4.444-3.7117 10.674-9.729 17.411-22.148 21.583-33.358 8.4673-22.756 6.0263-40.495 6.0263-40.495 8.8775 18.808-2.9558 45.378-2.9558 45.378 13.758-22.808 16.595-42.11 13.782-59.089-2.8102-16.979-8.1394-20.705-8.1394-20.705-0.7 5.6748-8.6452 4.619-8.6452 4.619 8.2511-6.1277 2.1587-10.98 2.1587-10.98-1.6352 2.147-3.8395 2.9631-6.0997 3.0734-4.9484 0.2412-10.15-2.9131-10.15-2.9131s4.0998-0.043 7.6394-1.4191c3.5116-1.3631 6.4703-4.0366 4.3498-9.2805-3.7513-9.2864-26.222-45.044-31.518-53.429l-0.1161 0.2-1.4794-2.2838-0.1206-0.1882 0.01-0.012 12.554-23.383 2.447 0.5985c0.3161 0.068 0.6632 0.1411 1.0396 0.2161 8.7556 1.7779 32.344 4.8587 50.729-8.4011 23.018-16.602 30.3-51.189 30.858-71.35 0.5603-20.161-8.385-52.513-8.385-52.513s0.062 0.059 0.1765 0.1588v0.01c0.6956 1.5043 1.3617 3.0337 1.997 4.588 0 0.012 0.01 0.021 0.012 0.034 1.8984 4.6483 3.516 9.5378 4.8336 14.621 0.044 0.1809 0.084 0.3603 0.1324 0.5397 0.3573 1.4029 0.6837 2.8264 0.994 4.2587 0.096 0.4367 0.1838 0.872 0.2721 1.3073 0.2456 1.2073 0.472 2.4205 0.6823 3.6469 0.091 0.525 0.1838 1.0499 0.2647 1.5749 0.1926 1.2103 0.3603 2.4293 0.5176 3.6543 0.068 0.5029 0.1397 1.0014 0.1985 1.5073 0.1986 1.7058 0.3721 3.4278 0.5015 5.1674 0.1176 1.5573 0.2029 3.1117 0.2618 4.6587 1.8205 47.924-23.98 88.642-59.149 90.436" style="fill:#fccc5a"/>
   <path d="m1157 4392.5s-4.1571-29.728 11.714-34.01 30.233 19.651 30.233 19.651-16.754-13.607-28.343-10.33c-11.589 3.2749-13.604 24.69-13.604 24.69" style="fill:#4e2d62"/>
   <path d="m1324.1 4645.2s-2.4734-1.6764-9.6629-2.7396c0 0 5.7042 3.5336 8.0247 8.9923 0 0-8.5967-6.5601-21.343-3.294 6.4983 0.3632 9.31 4.5954 9.31 6.982 0 2.4411-9.0703 0.503-15.244 4.6602-18.264 13.732-14.832 24.787-19.018 22.926-1.8808-0.8338-2.7719-5.038 0.125-9.3202-6.6777 2.0146-7.0541 10.832-7.0541 10.832-4.5351-1.1338-1.1338-12.092-8.6923-6.4233-5.9042 4.4278-10.248 2.6808-11.541 1.3779-0.2235-0.247 0 0 0 0s1.3956-2.3249 3.3911-3.8616c7.8394-7.8276 26.192-24.753 43.36-30.231 0 0-4.9307-1.8426-3.8234-4.4984 1.1074-2.6558 14.141-3.1616 14.141-3.1616s-37.969-27.772-46.282-34.071c-8.3144-6.2983-17.635-13.101-15.116-14.864 0 0 2.7705-1.2603 7.5571 3.0234 4.7865 4.2822 55.173 38.294 64.494 45.85h-0.4352c3.0587 2.3954 5.7836 5.0115 7.8085 7.8188" style="fill:#744b82"/>
  </g>
 </g>
</svg>
